#!OML:ASF E:\Style4\Style4.ASF
:FULLY-SPECIFIED
:DEGREES
1733
root 0.571941 16.4151 0.268388 2.67753 3.54109 3.9179
lowerback 12.4987 2.62199 -3.2375
upperback 4.53016 3.07379 -0.285817
thorax -2.39973 1.51478 1.08072
lowerneck 7.41954 -5.50423 -5.17897
upperneck 2.73652 -7.71162 5.7711
head 0.0484368 -3.9417 2.87864
rclavicle 3.67752e-015 -1.63003e-014
rhumerus -29.3254 19.9173 -59.7805
rradius 136.512
rwrist -72.984
rhand 59.2473 -3.90139
rfingers 7.12502
rthumb 74.4199 25.8747
lclavicle 3.67752e-015 -1.63003e-014
lhumerus -14.6862 -17.2869 55.9
lradius 140.949
lwrist 73.6181
lhand 37.9974 50.1835
lfingers 7.12502
lthumb 60.7154 63.1902
rfemur -26.9514 -8.06111 12.7938
rtibia 61.245
rfoot -30.7733 -20.9945
rtoes -17.0333
lfemur -26.9911 1.45205 -25.9947
ltibia 58.3152
lfoot -32.3933 12.4171
ltoes -18.5736
1734
root 0.577381 16.4162 0.259709 2.70664 3.20545 3.89286
lowerback 12.4493 2.56691 -3.37136
upperback 4.41445 2.98488 -0.267174
thorax -2.49732 1.47191 1.18722
lowerneck 7.61013 -5.61037 -5.09615
upperneck 2.47471 -7.84519 5.65035
head -0.067846 -4.00971 2.83824
rclavicle -4.01545e-014 3.4191e-014
rhumerus -28.338 21.8213 -57.3724
rradius 136.418
rwrist -73.2991
rhand 58.5899 -3.63563
rfingers 7.12502
rthumb 74.2348 23.8922
lclavicle -4.01545e-014 3.4191e-014
lhumerus -13.7252 -19.0086 53.2217
lradius 140.975
lwrist 73.9277
lhand 36.5351 49.8429
lfingers 7.12502
lthumb 59.4662 64.1716
rfemur -27.0924 -7.84353 12.7982
rtibia 61.2073
rfoot -30.7868 -20.7031
rtoes -16.6683
lfemur -27.079 1.54738 -26.0057
ltibia 58.3959
lfoot -32.5329 12.5664
ltoes -18.6508
1735
root 0.586264 16.4217 0.254245 2.75351 2.8678 3.8307
lowerback 12.333 2.52988 -3.39722
upperback 4.32782 2.9364 -0.242595
thorax -2.52514 1.44865 1.237
lowerneck 7.70378 -5.73689 -4.99301
upperneck 2.2772 -8.00272 5.49764
head -0.147868 -4.08756 2.77903
rclavicle -6.16232e-015 -1.98785e-015
rhumerus -27.2765 23.6542 -54.829
rradius 136.372
rwrist -73.653
rhand 57.9911 -3.35737
rfingers 7.12502
rthumb 74.045 22.171
lclavicle -6.16232e-015 -1.98785e-015
lhumerus -12.5364 -20.8147 50.4909
lradius 141.008
lwrist 74.2182
lhand 35.9369 49.7273
lfingers 7.12502
lthumb 58.9504 64.5642
rfemur -27.2124 -7.65481 12.8285
rtibia 61.132
rfoot -30.6435 -20.6993
rtoes -17.0748
lfemur -27.1541 1.66914 -25.9939
ltibia 58.4344
lfoot -32.5493 12.6885
ltoes -18.5666
1736
root 0.594095 16.4275 0.247428 2.80105 2.49801 3.70276
lowerback 12.1877 2.50732 -3.36786
upperback 4.24711 2.91505 -0.212831
thorax -2.52984 1.43873 1.25848
lowerneck 7.61992 -5.90121 -4.85434
upperneck 2.35896 -8.20944 5.34159
head -0.10752 -4.18692 2.69877
rclavicle -2.50469e-014 7.55382e-015
rhumerus -26.0713 25.4571 -52.2046
rradius 136.295
rwrist -74.0809
rhand 57.3379 -3.20535
rfingers 7.12502
rthumb 73.8159 20.1994
lclavicle -2.50469e-014 7.55382e-015
lhumerus -11.3022 -22.6769 47.6602
lradius 141.029
lwrist 74.5008
lhand 35.7705 49.5801
lfingers 7.12502
lthumb 58.8064 64.5552
rfemur -27.3523 -7.39011 12.9565
rtibia 61.0511
rfoot -30.4881 -20.6191
rtoes -16.895
lfemur -27.2606 1.83241 -25.8934
ltibia 58.4448
lfoot -32.3188 12.7936
ltoes -18.4685
1737
root 0.605732 16.433 0.24162 2.93017 2.14622 3.78791
lowerback 11.9581 2.48053 -3.50211
upperback 4.15623 2.87031 -0.25762
thorax -2.50166 1.41679 1.30061
lowerneck 7.41628 -6.07182 -4.84106
upperneck 2.61066 -8.43598 5.32579
head 0.0191937 -4.29702 2.67801
rclavicle -5.64548e-014 2.3059e-014
rhumerus -24.7243 27.1861 -49.4959
rradius 136.197
rwrist -74.5381
rhand 56.748 -2.99158
rfingers 7.12502
rthumb 73.5898 18.5494
lclavicle -5.64548e-014 2.3059e-014
lhumerus -10.0494 -24.5028 44.7357
lradius 141.028
lwrist 74.7217
lhand 35.5746 49.143
lfingers 7.12502
lthumb 58.6366 64.2792
rfemur -27.5689 -7.19364 12.8277
rtibia 60.9644
rfoot -30.3316 -20.377
rtoes -16.4943
lfemur -27.397 1.8798 -26.0437
ltibia 58.413
lfoot -32.1785 12.9663
ltoes -18.5917
1738
root 0.617659 16.4391 0.240413 2.9902 1.84434 3.98084
lowerback 11.7913 2.46178 -3.69235
upperback 4.08275 2.82638 -0.354536
thorax -2.48904 1.39537 1.31759
lowerneck 7.56115 -6.17466 -5.00698
upperneck 2.45848 -8.58855 5.63703
head -0.0240088 -4.38016 2.82218
rclavicle -4.34344e-014 -3.57812e-015
rhumerus -23.4995 28.8234 -46.8757
rradius 136.175
rwrist -74.9893
rhand 56.1222 -2.63308
rfingers 7.12502
rthumb 73.3311 16.9891
lclavicle -4.34344e-014 -3.57812e-015
lhumerus -8.69567 -26.3053 41.7948
lradius 140.998
lwrist 74.9324
lhand 35.555 48.7712
lfingers 7.12502
lthumb 58.6196 63.9233
rfemur -27.6537 -7.12342 12.5379
rtibia 60.8625
rfoot -30.2681 -20.0919
rtoes -16.3127
lfemur -27.3746 1.84714 -26.3219
ltibia 58.3449
lfoot -32.2322 13.2874
ltoes -18.9047
1739
root 0.626361 16.4478 0.24225 2.86314 1.51221 3.96511
lowerback 11.7526 2.46918 -3.71649
upperback 4.09129 2.83468 -0.364366
thorax -2.46005 1.39878 1.32147
lowerneck 7.70359 -6.2733 -5.12774
upperneck 2.24158 -8.72929 5.88463
head -0.0925674 -4.45675 2.93946
rclavicle -3.84648e-014 3.57812e-014
rhumerus -22.257 30.346 -44.2341
rradius 136.271
rwrist -75.4078
rhand 55.7728 -2.462
rfingers 7.12502
rthumb 73.1785 16.1154
lclavicle -3.84648e-014 3.57812e-014
lhumerus -7.28346 -28.0697 38.9355
lradius 141.016
lwrist 75.3032
lhand 35.0135 48.3586
lfingers 7.12502
lthumb 58.1489 63.9456
rfemur -27.4893 -6.96224 12.4698
rtibia 60.7109
rfoot -30.2426 -19.8809
rtoes -16.3971
lfemur -27.1299 1.8869 -26.3427
ltibia 58.2603
lfoot -32.2575 13.3907
ltoes -18.859
1740
root 0.634421 16.4584 0.241176 2.77562 1.13396 3.87845
lowerback 11.6979 2.48841 -3.66833
upperback 4.10244 2.86826 -0.348793
thorax -2.41904 1.41464 1.30841
lowerneck 7.73475 -6.4278 -5.06835
upperneck 2.12115 -8.92756 5.88002
head -0.126982 -4.55612 2.93347
rclavicle 2.45499e-014 -2.78299e-014
rhumerus -20.8325 31.8085 -41.512
rradius 136.372
rwrist -75.8212
rhand 55.5698 -2.52853
rfingers 7.12502
rthumb 73.0872 15.4508
lclavicle 2.45499e-014 -2.78299e-014
lhumerus -5.77613 -29.7227 36.0759
lradius 141.08
lwrist 75.8634
lhand 34.4335 47.9466
lfingers 7.12502
lthumb 57.6425 63.9844
rfemur -27.4077 -6.72279 12.5103
rtibia 60.5431
rfoot -30.0701 -19.8204
rtoes -17.063
lfemur -26.9627 1.96193 -26.2667
ltibia 58.1729
lfoot -32.1642 13.4094
ltoes -18.4466
1741
root 0.64388 16.4713 0.236648 2.77293 0.777741 3.87714
lowerback 11.6056 2.48201 -3.71395
upperback 4.06658 2.85815 -0.336025
thorax -2.4084 1.40951 1.35142
lowerneck 7.84304 -6.56662 -5.0536
upperneck 2.01689 -9.11154 5.83691
head -0.170234 -4.64907 2.92592
rclavicle -1.39149e-014 1.63003e-014
rhumerus -19.3573 33.2565 -38.7983
rradius 136.489
rwrist -76.3026
rhand 55.0947 -2.53585
rfingers 7.12502
rthumb 72.8663 14.0698
lclavicle -1.39149e-014 1.63003e-014
lhumerus -4.20453 -31.3707 33.2801
lradius 141.152
lwrist 76.3244
lhand 33.9395 47.4828
lfingers 7.12502
lthumb 57.2096 63.8929
rfemur -27.4471 -6.49622 12.4657
rtibia 60.3819
rfoot -29.9027 -19.718
rtoes -17.2928
lfemur -26.9253 1.88456 -26.2514
ltibia 58.0986
lfoot -32.1708 13.1884
ltoes -17.3027
1742
root 0.655442 16.483 0.233922 2.74318 0.395463 3.90499
lowerback 11.53 2.48428 -3.78822
upperback 4.03494 2.85586 -0.316792
thorax -2.40443 1.40818 1.41549
lowerneck 7.8324 -6.68437 -5.11321
upperneck 2.12185 -9.27616 5.77644
head -0.124757 -4.73054 2.91413
rclavicle 1.5207e-014 3.97569e-015
rhumerus -17.8823 34.6163 -36.1396
rradius 136.617
rwrist -76.7835
rhand 54.3983 -2.56481
rfingers 7.12502
rthumb 72.5247 12.0927
lclavicle 1.5207e-014 3.97569e-015
lhumerus -2.67964 -32.9027 30.5835
lradius 141.2
lwrist 76.7485
lhand 33.3605 47.1036
lfingers 7.12502
lthumb 56.7002 63.9366
rfemur -27.4546 -6.24682 12.3736
rtibia 60.2241
rfoot -29.7688 -19.5944
rtoes -17.1874
lfemur -26.8739 1.72491 -26.2512
ltibia 58.0513
lfoot -32.2455 12.8265
ltoes -15.8472
